<svg width="64" height="51" viewBox="0 0 64 51" fill="none" xmlns="http://www.w3.org/2000/svg">
<path d="M63.5059 40.6816C63.4512 41.2285 63.2598 41.6523 62.9316 41.9531C62.6035 42.2812 62.1797 42.4453 61.6602 42.4453C61.3867 42.4453 61.127 42.4043 60.8809 42.3223C60.3613 42.7324 59.7461 43.0469 59.0352 43.2656C58.3242 43.4844 57.6543 43.7031 57.0254 43.9219C56.2598 43.8945 55.5078 43.8262 54.7695 43.7168C54.0312 43.6074 53.2656 43.5801 52.4727 43.6348C52.1992 43.4434 51.9121 43.3203 51.6113 43.2656C51.3105 43.2109 50.9961 43.1699 50.668 43.1426C50.3672 43.1426 50.0664 43.1016 49.7656 43.0195C49.4922 42.9375 49.2188 42.7461 48.9453 42.4453H46.8945C46.7031 42.4453 46.416 42.3496 46.0332 42.1582C45.6777 41.9941 45.2676 41.8164 44.8027 41.625C44.3652 41.4336 43.8867 41.2559 43.3672 41.0918C42.875 40.9277 42.4102 40.8457 41.9727 40.8457H41.7266C41.4258 40.5996 41.0703 40.4082 40.6602 40.2715C40.2773 40.1621 39.8809 40.0527 39.4707 39.9434C39.0605 39.8613 38.6641 39.7656 38.2812 39.6562C37.8984 39.5469 37.5703 39.3965 37.2969 39.2051C37.0234 39.0137 36.709 38.8223 36.3535 38.6309C35.998 38.4121 35.6289 38.3164 35.2461 38.3438C34.7266 38.043 34.1797 37.7832 33.6055 37.5645C33.0586 37.3457 32.498 37.1406 31.9238 36.9492L30.2422 36.334C29.6953 36.1152 29.1484 35.8555 28.6016 35.5547C28.5195 35.582 28.4238 35.582 28.3145 35.5547C28.2051 35.5273 28.1094 35.5137 28.0273 35.5137C27.8633 35.5137 27.7676 35.5684 27.7402 35.6777C27.5488 35.4863 27.3301 35.3223 27.084 35.1855C26.8652 35.0488 26.6465 34.8848 26.4277 34.6934C26.3184 34.7207 26.209 34.748 26.0996 34.7754C26.0176 34.7754 25.9082 34.7754 25.7715 34.7754C25.5254 34.7754 25.2793 34.748 25.0332 34.6934C24.8145 34.6387 24.5957 34.5703 24.377 34.4883C24.1309 35.0352 23.9668 35.6504 23.8848 36.334C23.8027 37.0176 23.7344 37.7285 23.6797 38.4668C23.6523 39.1777 23.6113 39.8887 23.5566 40.5996C23.502 41.3379 23.3789 42.0078 23.1875 42.6094C23.2422 42.8281 23.2695 43.0469 23.2695 43.2656V43.9629C23.2695 44.4277 23.3379 44.7969 23.4746 45.0703C23.4199 45.3164 23.3652 45.5488 23.3105 45.7676C23.2832 45.9863 23.2422 46.2051 23.1875 46.4238C23.2148 46.7246 23.2285 46.998 23.2285 47.2441C23.2559 47.5176 23.2695 47.8047 23.2695 48.1055V48.8027C23.2695 49.0488 23.2422 49.2949 23.1875 49.541C22.9141 49.7051 22.6406 49.8555 22.3672 49.9922C22.0938 50.1562 21.8203 50.3477 21.5469 50.5664C21.3555 50.2109 21.0273 50.0059 20.5625 49.9512C20.4531 50.0879 20.3711 50.2656 20.3164 50.4844C20.2891 50.7305 20.166 50.8535 19.9473 50.8535C19.5645 50.5527 19.25 50.3066 19.0039 50.1152C18.7578 49.9238 18.4844 49.6367 18.1836 49.2539C18.1562 49.1992 18.1426 49.1309 18.1426 49.0488C18.1426 48.9121 18.1699 48.7891 18.2246 48.6797C18.2793 48.5703 18.3066 48.4609 18.3066 48.3516C18.3066 48.0234 18.2656 47.7363 18.1836 47.4902C18.1289 47.1348 18.0879 46.7793 18.0605 46.4238C18.0332 46.0957 18.0195 45.7676 18.0195 45.4395C18.0195 44.9746 18.0469 44.5234 18.1016 44.0859C18.1836 43.6484 18.3203 43.1973 18.5117 42.7324C18.8125 41.9395 19.0176 41.1055 19.127 40.2305C19.2637 39.3555 19.3594 38.4805 19.4141 37.6055C19.4688 36.7031 19.4961 35.8008 19.4961 34.8984C19.5234 33.9961 19.5781 33.1348 19.6602 32.3145C19.4688 31.877 19.2363 31.5352 18.9629 31.2891C18.7168 31.0156 18.5938 30.5918 18.5938 30.0176C18.5938 29.498 18.7578 29.1016 19.0859 28.8281C19.4141 28.5273 19.7012 28.1719 19.9473 27.7617C19.8926 27.5977 19.9336 27.4883 20.0703 27.4336L20.5625 23.127C20.5898 22.8262 20.6309 22.498 20.6855 22.1426C20.7676 21.7871 20.8223 21.459 20.8496 21.1582C20.9043 20.5293 20.9316 19.9141 20.9316 19.3125C20.9316 18.7109 20.959 18.1094 21.0137 17.5078C21.1504 16.168 21.2734 14.8418 21.3828 13.5293C21.5195 12.2168 21.5879 10.9043 21.5879 9.5918C21.5879 8.96289 21.5605 8.33398 21.5059 7.70508C21.4785 7.07617 21.3965 6.44727 21.2598 5.81836C20.7949 5.95508 20.2754 6.10547 19.7012 6.26953C19.1543 6.40625 18.6895 6.65234 18.3066 7.00781H17.9785C17.2676 7.00781 16.5977 7.14453 15.9688 7.41797C15.3672 7.69141 14.752 7.95117 14.123 8.19727C13.8496 8.33398 13.5762 8.42969 13.3027 8.48438C13.0293 8.51172 12.7422 8.56641 12.4414 8.64844C12.3047 8.67578 12.1543 8.75781 11.9902 8.89453C11.8262 9.03125 11.6758 9.12695 11.5391 9.18164L10.8418 9.3457C10.6504 9.40039 10.5684 9.52344 10.5957 9.71484C10.623 9.90625 10.5547 10.0293 10.3906 10.084C10.2539 10.2207 10.0625 10.2891 9.81641 10.2891C9.57031 10.2617 9.37891 10.248 9.24219 10.248H9.07812C8.39453 10.7402 7.73828 11.1641 7.10938 11.5195C6.45312 11.8477 5.6875 12.0664 4.8125 12.1758L3.91016 12.75C3.60938 12.9414 3.26758 13.0371 2.88477 13.0371C2.58398 13.0371 2.33789 12.9824 2.14648 12.873C1.92773 12.5449 1.76367 12.1758 1.6543 11.7656C1.51758 11.3555 1.29883 11 0.998047 10.6992C1.13477 10.5625 1.23047 10.3848 1.28516 10.166C1.3125 9.91992 1.35352 9.70117 1.4082 9.50977C2.22852 9.1543 3.0625 8.8125 3.91016 8.48438C4.73047 8.15625 5.52344 7.75977 6.28906 7.29492C6.37109 7.32227 6.49414 7.33594 6.6582 7.33594C6.93164 7.33594 7.17773 7.29492 7.39648 7.21289C7.61523 7.13086 7.83398 7.03516 8.05273 6.92578C8.27148 6.81641 8.49023 6.7207 8.70898 6.63867C8.92773 6.55664 9.1875 6.5293 9.48828 6.55664C10.418 6.03711 11.4023 5.61328 12.4414 5.28516C13.4805 4.95703 14.4648 4.50586 15.3945 3.93164C15.5312 3.93164 15.6406 3.95898 15.7227 4.01367C15.832 4.06836 15.9414 4.0957 16.0508 4.0957C16.1602 4.0957 16.2285 4.08203 16.2559 4.05469C16.4199 3.83594 16.6387 3.68555 16.9121 3.60352C17.1855 3.49414 17.459 3.41211 17.7324 3.35742C18.0332 3.27539 18.3066 3.17969 18.5527 3.07031C18.8262 2.93359 19.0039 2.72852 19.0859 2.45508C19.2227 2.56445 19.4277 2.61914 19.7012 2.61914C20.166 2.61914 20.5898 2.52344 20.9727 2.33203C21.3828 2.14062 21.8203 2.04492 22.2852 2.04492C22.3945 2.04492 22.4902 2.07227 22.5723 2.12695C22.6816 2.1543 22.791 2.16797 22.9004 2.16797C23.1191 2.16797 23.2285 2.09961 23.2285 1.96289C23.2559 1.82617 23.3379 1.70312 23.4746 1.59375C25.1426 1.29297 26.7969 1.01953 28.4375 0.773438C30.1055 0.527344 31.7871 0.404297 33.4824 0.404297C33.7285 0.240234 34.002 0.158203 34.3027 0.158203C34.6035 0.158203 34.877 0.240234 35.123 0.404297C35.5879 0.349609 36.0527 0.308594 36.5176 0.28125C36.9824 0.253906 37.4473 0.240234 37.9121 0.240234C38.9785 0.240234 40.0723 0.308594 41.1934 0.445312C42.3145 0.582031 43.4219 0.800781 44.5156 1.10156C45.6367 1.375 46.7031 1.75781 47.7148 2.25C48.7266 2.71484 49.6699 3.27539 50.5449 3.93164C50.627 4.17773 50.7363 4.42383 50.873 4.66992C51.0098 4.91602 51.1875 5.10742 51.4062 5.24414C51.4062 5.29883 51.3926 5.33984 51.3652 5.36719C51.3652 5.39453 51.3652 5.43555 51.3652 5.49023C51.3652 5.79102 51.4473 6.07812 51.6113 6.35156C51.8027 6.625 51.8984 6.95312 51.8984 7.33594C51.8984 7.71875 51.8301 8.10156 51.6934 8.48438C51.584 8.86719 51.543 9.25 51.5703 9.63281C51.2695 10.0703 51.0098 10.4668 50.791 10.8223C50.5996 11.1777 50.4766 11.6289 50.4219 12.1758C49.9297 12.668 49.4922 13.2148 49.1094 13.8164C48.7266 14.3906 48.3301 14.9648 47.9199 15.5391C47.5371 16.0859 47.0996 16.5918 46.6074 17.0566C46.1152 17.5215 45.5273 17.8906 44.8438 18.1641C44.8164 18.4375 44.707 18.7383 44.5156 19.0664H43.6543C43.5723 19.2852 43.4355 19.4492 43.2441 19.5586L42.6699 19.8867C42.4785 19.9961 42.3145 20.1328 42.1777 20.2969C42.0684 20.4609 42.0137 20.6934 42.0137 20.9941C41.959 20.9668 41.8906 20.9531 41.8086 20.9531C41.5352 20.9531 41.207 21.0898 40.8242 21.3633C40.4688 21.6367 40.1816 21.8555 39.9629 22.0195C39.498 22.3477 39.0195 22.6484 38.5273 22.9219C38.0625 23.1953 37.6523 23.5781 37.2969 24.0703C36.2031 24.5352 35.1641 25.082 34.1797 25.7109C33.1953 26.3125 32.1289 26.791 30.9805 27.1465C30.543 27.6113 30.0234 27.9805 29.4219 28.2539C28.8477 28.5 28.2871 28.7734 27.7402 29.0742V29.1973C27.7402 29.416 27.8223 29.6348 27.9863 29.8535C28.1504 30.0449 28.3418 30.2227 28.5605 30.3867C28.7793 30.5234 29.0117 30.6191 29.2578 30.6738C29.5312 30.7285 29.7637 30.7285 29.9551 30.6738C30.502 31.166 31.1309 31.5625 31.8418 31.8633C32.5527 32.1641 33.291 32.4375 34.0566 32.6836C34.8223 32.9297 35.5742 33.1895 36.3125 33.4629C37.0508 33.7363 37.7344 34.0781 38.3633 34.4883H39.3477C39.9766 35.0352 40.7148 35.4453 41.5625 35.7188C42.4375 35.9922 43.2715 36.2383 44.0645 36.457C44.3926 36.7578 44.8027 36.9902 45.2949 37.1543C45.8145 37.291 46.3066 37.3594 46.7715 37.3594H47.0176C47.127 37.3594 47.2227 37.3457 47.3047 37.3184V37.4004C47.3047 37.5371 47.3457 37.6328 47.4277 37.6875C47.5098 37.7148 47.5918 37.7422 47.6738 37.7695C47.7832 37.7695 47.8789 37.7969 47.9609 37.8516C48.0703 37.8789 48.1523 37.9336 48.207 38.0156H48.6172C49.1914 38.0156 49.7383 38.1387 50.2578 38.3848C50.7773 38.6035 51.3242 38.7129 51.8984 38.7129C52.1445 38.7129 52.3359 38.6855 52.4727 38.6309C52.6367 38.6855 52.7598 38.7949 52.8418 38.959C52.9238 39.123 53.0332 39.2598 53.1699 39.3691C53.3613 39.3418 53.5391 39.3145 53.7031 39.2871C53.8672 39.2871 54.0312 39.2871 54.1953 39.2871C54.7969 39.2871 55.3574 39.3555 55.877 39.4922C56.3965 39.6289 56.9297 39.834 57.4766 40.1074C58.3516 39.7246 59.2129 39.4102 60.0605 39.1641C60.9082 38.918 61.8105 38.7949 62.7676 38.7949V38.877C62.7676 39.2051 62.8496 39.5059 63.0137 39.7793C63.2051 40.0801 63.3691 40.3809 63.5059 40.6816ZM47.7969 7.95117C47.7969 7.62305 47.7285 7.36328 47.5918 7.17188C47.4824 6.98047 47.332 6.81641 47.1406 6.67969C46.9492 6.51562 46.7441 6.36523 46.5254 6.22852C46.334 6.0918 46.1562 5.91406 45.9922 5.69531C45.2812 5.47656 44.584 5.23047 43.9004 4.95703C43.2168 4.68359 42.5195 4.45117 41.8086 4.25977C41.4531 4.17773 41.0977 4.10938 40.7422 4.05469C40.3867 3.97266 40.0312 3.93164 39.6758 3.93164H38.7734C38.6094 3.9043 38.4316 3.87695 38.2402 3.84961C38.0762 3.79492 37.9121 3.75391 37.748 3.72656C37.3652 3.67188 36.9824 3.63086 36.5996 3.60352C36.2441 3.57617 35.875 3.5625 35.4922 3.5625C34.7812 3.5625 34.0703 3.58984 33.3594 3.64453L31.2266 3.80859C30.9258 3.83594 30.6113 3.84961 30.2832 3.84961C29.9551 3.84961 29.6543 3.87695 29.3809 3.93164C29.2441 3.95898 29.0527 4.02734 28.8066 4.13672C28.5605 4.21875 28.3008 4.31445 28.0273 4.42383C27.7539 4.50586 27.4805 4.60156 27.207 4.71094C26.9609 4.82031 26.7422 4.90234 26.5508 4.95703C26.5781 5.14844 26.5918 5.33984 26.5918 5.53125V6.06445C26.5918 6.47461 26.5781 6.88477 26.5508 7.29492C26.5234 7.70508 26.4688 8.11523 26.3867 8.52539C26.3594 8.68945 26.3184 8.85352 26.2637 9.01758C26.209 9.18164 26.168 9.3457 26.1406 9.50977C26.0859 9.75586 26.0586 10.0293 26.0586 10.3301V11.1094C26.0039 11.7383 25.9629 12.3535 25.9355 12.9551C25.9082 13.5566 25.8672 14.1719 25.8125 14.8008C25.6484 16.6055 25.4707 18.3965 25.2793 20.1738C25.1152 21.9512 25.0059 23.7422 24.9512 25.5469C25.8535 25.3555 26.7148 25.0684 27.5352 24.6855C28.3555 24.3027 29.1621 23.8926 29.9551 23.4551C30.748 22.9902 31.541 22.5391 32.334 22.1016C33.127 21.6641 33.9609 21.2949 34.8359 20.9941C35.0547 20.6934 35.3145 20.4473 35.6152 20.2559C35.9434 20.0645 36.2168 19.8184 36.4355 19.5176C36.709 19.5176 36.9141 19.4629 37.0508 19.3535C37.1875 19.2168 37.3652 19.1211 37.584 19.0664C38.8965 17.918 40.2363 16.8379 41.6035 15.8262C42.9707 14.8145 44.2832 13.7344 45.541 12.5859C45.6504 12.2031 45.8281 11.834 46.0742 11.4785C46.3477 11.0957 46.6074 10.7129 46.8535 10.3301C47.0996 9.94727 47.3184 9.56445 47.5098 9.18164C47.7012 8.79883 47.7969 8.38867 47.7969 7.95117Z" fill="#FAF3E0"/>
</svg>
